<svg xmlns="http://www.w3.org/2000/svg" width="79.629" height="24" version="1.2" viewBox="0 0 59.722 18"><path d="m13.548 5.94 4.013-3.492L22.345.045 18.4 3.38c.084.138.164.28.234.425L25.383 0l-6.335 4.922c.108.43.165.876.165 1.337 0 3.17-2.705 5.739-6.04 5.739a6.26 6.26 0 0 1-2.956-.732l7.049-3.83-5.102 3.888c.326.065.663.1 1.008.1 2.825 0 5.113-2.312 5.113-5.165a5.18 5.18 0 0 0-.64-2.505zM8.67 8.708a5.183 5.183 0 0 1-.61-2.449c0-2.852 2.29-5.165 5.113-5.165.309 0 .611.028.905.081l.039.05-5.08 3.762 7.094-3.734A6.475 6.475 0 0 0 13.172.52c-3.336 0-6.04 2.57-6.04 5.74 0 .451.055.891.159 1.313L.944 12.469l6.739-3.812c.082.171.174.338.273.498l-4.201 3.383 4.988-2.472 4.012-3.604zm0 0" style="fill:#000;fill-opacity:1;fill-rule:nonzero;stroke:none;stroke-width:.12764242"/><path d="m6.702 12.583 2.222-2.29 6.166-3.401-5.101 4.149ZM19.556 0l-3.197 1.451-5.01 4.035L17.402 2.2ZM2.309 14.59l-.861 1.549-.866-1.55H0v3.368h.544v-2.371l.89 1.549h.014l.895-1.559v2.381h.553V14.59zm1.294 3.367h.558V14.59h-.558Zm3.266-3.367v2.246L5.388 14.59h-.52v3.367h.549v-2.314l1.525 2.314h.47V14.59zm1.226 0v3.367h2.147v-.505H8.649v-.938h1.39v-.505h-1.39v-.914h1.568v-.505zm2.444 2.925.337-.419c.25.226.529.399.885.399.322 0 .53-.178.53-.428v-.005c0-.212-.111-.351-.646-.548-.64-.241-.971-.476-.971-1.015v-.01c0-.553.443-.943 1.068-.943.39 0 .75.125 1.058.395l-.317.428c-.231-.188-.486-.317-.755-.317-.303 0-.491.168-.491.39v.004c0 .236.125.36.697.582.625.24.914.5.914.991v.009c0 .592-.462.972-1.092.972-.433 0-.851-.149-1.217-.485m4.026-2.925h1.078c.736 0 1.212.423 1.212 1.12v.01c0 .745-.548 1.135-1.245 1.145h-.487v1.092h-.558zm1.044 1.77c.429 0 .679-.255.679-.63v-.005c0-.404-.25-.626-.679-.626h-.486v1.26zm2.4-1.79-1.236 3.387h.563l.28-.794h1.308l.278.794h.583l-1.237-3.387zm.26.746.482 1.352h-.963zm1.949-.726h1.217c.384 0 .697.115.9.317.177.178.278.433.278.74v.02c0 .52-.288.842-.698.987l.794 1.303h-.645l-.716-1.193a.087.087 0 0 1-.034.005h-.539v1.188h-.557zm1.159 1.679c.433 0 .673-.231.673-.582v-.01c0-.38-.245-.578-.664-.578h-.61v1.17zm1.823 1.688h.558V14.59H23.2zm1.024-.442.337-.419c.25.226.529.399.885.399.322 0 .53-.178.53-.428v-.005c0-.212-.111-.351-.645-.548-.64-.241-.972-.476-.972-1.015v-.01c0-.553.442-.943 1.068-.943.39 0 .75.125 1.058.395l-.317.428c-.232-.188-.486-.317-.755-.317-.304 0-.492.168-.492.39v.004c0 .236.125.36.698.582.625.24.914.5.914.991v.009c0 .592-.462.972-1.092.972-.433 0-.851-.149-1.217-.485m7.18-3.365h-.282V5.298h.283zm5.566-7.546v2.583h1.572c.9 0 1.365-.539 1.365-1.291 0-.741-.466-1.292-1.365-1.292zm3.773 1.28c0 1.187-.837 2.045-2.18 2.045H36.97v2.922h-.806V5.863h2.398c1.344 0 2.18.847 2.18 2.022m5.169-.952-.59.454c-.361-.56-.94-.878-1.561-.878-.63 0-1.21.328-1.21 1.017 0 .635.475.867 1.097 1.175l.754.37c.992.487 1.592 1.006 1.592 1.948 0 1.175-.94 1.948-2.202 1.948-1.085 0-1.985-.582-2.512-1.503l.6-.455c.414.646 1.023 1.196 1.902 1.196.806 0 1.376-.455 1.376-1.164 0-.646-.466-.9-1.139-1.228l-.765-.371c-.795-.392-1.54-.89-1.54-1.874 0-1.111.951-1.821 2.058-1.821.93 0 1.716.497 2.14 1.186m1.514-1.07v6.988h4.043v-.741H48.23V5.863Zm5.294-.043v6.774l-.004.005.005.004v.221h.22l.005.004.004-.004h6.773V5.82Zm6.57.204-.773.773a3.398 3.398 0 0 0-1.418-.773zm-1.36 4.823-.357-.358-.213-.76.378-.277h1.684a1.523 1.523 0 0 1-1.491 1.395m1.303-.425a3.209 3.209 0 0 1-.654 1.075l-.464-.465a1.715 1.715 0 0 0 1.118-.61m-2.25-2.09h-.07l-.04-.128a1.515 1.515 0 0 1 .565-.328zm.459 0 .53-.53c.435.018.82.22 1.087.53zm.649.86 1.046-.766c.16.218.26.482.284.767zm.066-1.576.444-.444c.274.303.488.66.631 1.05a1.715 1.715 0 0 0-1.075-.606M54.33 9.193h-1.315c.012-.295.06-.58.147-.85zm-1.164-.862a3.206 3.206 0 0 1 .697-1.183l1.184 1.183zm1.52 1.121.368.267-.25.79-.963.964a3.193 3.193 0 0 1-.826-2.021Zm-.64-2.488a3.197 3.197 0 0 1 2.152-.853l-.7 2.22h-.084zm1.297-.94a3.399 3.399 0 0 0-1.441.795l-.795-.795zm-2.42.183.795.795a3.404 3.404 0 0 0-.795 1.443zm0 6.183V10.2a3.405 3.405 0 0 0 .773 1.418zm.23.23.772-.773a3.405 3.405 0 0 0 1.418.773zm1.217-.677 1.862-1.24c-.021 0-.042-.005-.063-.005a2.04 2.04 0 0 0-1.727.957l-.088.277-.043-.035-.003.006-.17-.13.007-.011c-.025-.021-.051-.039-.074-.06l.288-.288a2.24 2.24 0 0 1 1.81-.923c.186 0 .365.028.538.07a1.72 1.72 0 0 1 .098-2.575l-.592-1.876h.008c.827 0 1.58.316 2.15.832l-.67.67c-.338.04-.644.175-.894.382l.065.205a1.523 1.523 0 0 0-.494 1.124 1.53 1.53 0 0 0 1.278 1.506l.07.206a.489.489 0 0 0 .027.003l.642.642c-.055.051-.113.1-.171.148a.004.004 0 0 1 0 .003l-.17.13-.002-.004c-.02.013-.038.028-.057.041l-.092-.328a2.036 2.036 0 0 0-1.655-.965l1.74 1.298a3.194 3.194 0 0 1-3.618-.06m2.729.677a3.402 3.402 0 0 0 1.44-.795l.796.795zm2.42-.183-.795-.795a3.406 3.406 0 0 0 .795-1.444zm0-3.99a3.409 3.409 0 0 0-.773-1.42l.773-.774zm0 0" style="fill:#000;fill-opacity:1;fill-rule:nonzero;stroke:none;stroke-width:.12764242"/><path d="M57.727 11.044c-.039-.004-.075-.016-.113-.022.05.043.098.09.146.136zm0 0" style="fill:#000;fill-opacity:1;fill-rule:nonzero;stroke:none;stroke-width:.12764242"/></svg>