<?xml version="1.0" encoding="UTF-8" standalone="no"?>
<svg
   xmlns:dc="http://purl.org/dc/elements/1.1/"
   xmlns:cc="http://creativecommons.org/ns#"
   xmlns:rdf="http://www.w3.org/1999/02/22-rdf-syntax-ns#"
   xmlns:svg="http://www.w3.org/2000/svg"
   xmlns="http://www.w3.org/2000/svg"
   xmlns:sodipodi="http://sodipodi.sourceforge.net/DTD/sodipodi-0.dtd"
   xmlns:inkscape="http://www.inkscape.org/namespaces/inkscape"
   id="svg43"
   version="1.2"
   viewBox="0 0 27 18"
   height="24"
   width="36"
   sodipodi:docname="MinesParis.svg"
   inkscape:version="0.92.5 (2060ec1f9f, 2020-04-08)">
  <sodipodi:namedview
     pagecolor="#ffffff"
     bordercolor="#666666"
     borderopacity="1"
     objecttolerance="10"
     gridtolerance="10"
     guidetolerance="10"
     inkscape:pageopacity="0"
     inkscape:pageshadow="2"
     inkscape:window-width="1528"
     inkscape:window-height="836"
     id="namedview10"
     showgrid="false"
     inkscape:zoom="9.8333333"
     inkscape:cx="12"
     inkscape:cy="12"
     inkscape:window-x="72"
     inkscape:window-y="27"
     inkscape:window-maximized="1"
     inkscape:current-layer="svg43" />
  <metadata
     id="metadata49">
    <rdf:RDF>
      <cc:Work
         rdf:about="">
        <dc:format>image/svg+xml</dc:format>
        <dc:type
           rdf:resource="http://purl.org/dc/dcmitype/StillImage" />
        <dc:title></dc:title>
      </cc:Work>
    </rdf:RDF>
  </metadata>
  <defs
     id="defs47" />
  <g
     transform="matrix(0.13152767,0,0,0.13152767,-13.036221,-10.750987)"
     id="g3882">
    <path
       id="path2"
       d="m 204.76953,147.41407 31.4375,-27.35547 37.48047,-18.82812 -30.91406,26.12109 c 0.66015,1.08203 1.28125,2.19141 1.83593,3.33203 l 52.87891,-29.80859 -49.63281,38.5625 c 0.84765,3.36328 1.29297,6.86719 1.29297,10.47656 0,24.83203 -21.1875,44.95703 -47.32422,44.95703 -8.41016,0 -16.3086,-2.08203 -23.14844,-5.73828 l 55.21875,-29.99609 -39.97266,30.45312 c 2.55469,0.51172 5.19922,0.78516 7.90235,0.78516 22.1289,0 40.05469,-18.11719 40.05469,-40.46094 0,-7.12109 -1.81641,-13.80859 -5.01563,-19.62109 z m 0,0"
       style="fill:#000000;fill-opacity:1;fill-rule:nonzero;stroke:none"
       inkscape:connector-curvature="0" />
    <path
       id="path4"
       d="m 166.54687,169.10157 c -3.05078,-5.71094 -4.77734,-12.24609 -4.77734,-19.1875 0,-22.34765 17.93359,-40.46484 40.05469,-40.46484 2.41797,0 4.78515,0.21484 7.08594,0.63281 l 0.30468,0.38672 -39.78906,29.48047 L 225,110.69142 c -6.77734,-3.54297 -14.90625,-5.73828 -23.17578,-5.73828 -26.13672,0 -47.32422,20.13281 -47.32422,44.96093 0,3.53906 0.42969,6.98438 1.24609,10.28906 l -49.72656,38.35938 52.79688,-29.86328 c 0.64843,1.33984 1.36328,2.64062 2.14062,3.89844 l -32.91406,26.5 39.07812,-19.36329 31.4336,-28.23437 z m 0,0"
       style="fill:#000000;fill-opacity:1;fill-rule:nonzero;stroke:none"
       inkscape:connector-curvature="0" />
    <path
       id="path6"
       d="m 151.13281,199.45704 17.40625,-17.94531 48.3125,-26.64063 -39.96875,32.50391 z m 0,0"
       style="fill:#000000;fill-opacity:1;fill-rule:nonzero;stroke:none"
       inkscape:connector-curvature="0" />
    <path
       id="path8"
       d="m 251.83594,100.87501 -25.04297,11.37109 -39.25,31.61328 47.42187,-25.7539 z m 0,0"
       style="fill:#000000;fill-opacity:1;fill-rule:nonzero;stroke:none"
       inkscape:connector-curvature="0" />
  </g>
</svg>
