<?xml version="1.0" encoding="UTF-8" standalone="no"?>
<svg
   xmlns:dc="http://purl.org/dc/elements/1.1/"
   xmlns:cc="http://creativecommons.org/ns#"
   xmlns:rdf="http://www.w3.org/1999/02/22-rdf-syntax-ns#"
   xmlns:svg="http://www.w3.org/2000/svg"
   xmlns="http://www.w3.org/2000/svg"
   id="svg43"
   version="1.2"
   viewBox="0 0 18 18"
   height="24"
   width="24">
  <metadata
     id="metadata49">
    <rdf:RDF>
      <cc:Work
         rdf:about="">
        <dc:format>image/svg+xml</dc:format>
        <dc:type
           rdf:resource="http://purl.org/dc/dcmitype/StillImage" />
        <dc:title></dc:title>
      </cc:Work>
    </rdf:RDF>
  </metadata>
  <defs
     id="defs47" />
  <g
     transform="matrix(0.2732326,0,0,0.2732326,-138.29051,-38.522186)"
     id="g73">
    <path
       id="path38"
       d="m 511.65234,146.47656 v 53.06641 l -0.0351,0.0352 0.0351,0.0312 v 1.73438 h 1.73438 l 0.0312,0.0312 0.0312,-0.0312 h 53.0664 v -54.86719 z m 51.47266,1.59375 -6.05859,6.0586 c -3.1211,-2.83985 -6.90625,-4.94532 -11.10938,-6.0586 z m -10.65234,37.78516 -2.80469,-2.80469 -1.66797,-5.95312 2.96094,-2.17188 h 13.1914 c -0.52343,6.05469 -5.51562,10.83594 -11.67968,10.92969 m 10.20703,-3.33594 c -1.15235,3.14453 -2.89063,6.00781 -5.1211,8.42188 l -3.63672,-3.63672 c 3.52344,-0.42969 6.60157,-2.1836 8.75782,-4.78516 m -17.62891,-16.375 h -0.53906 l -0.31641,-0.99609 c 1.25781,-1.16407 2.76172,-2.03125 4.42578,-2.57032 z m 3.59766,0 4.15234,-4.15234 c 3.41016,0.14843 6.42578,1.72656 8.51563,4.15234 z m 5.08593,6.75 8.19532,-6.00781 c 1.2539,1.71484 2.03125,3.77344 2.22265,6.00781 z m 0.51563,-12.35156 3.48047,-3.48047 c 2.14844,2.375 3.82422,5.16797 4.94531,8.23047 -2.08594,-2.51953 -5.03906,-4.25391 -8.42578,-4.75 m -29.98047,12.35156 h -10.30469 c 0.0977,-2.30859 0.47657,-4.54297 1.15625,-6.65234 z m -9.11719,-6.74609 c 1.13672,-3.49219 3.02344,-6.63672 5.46094,-9.27344 l 9.27344,9.27344 z m 11.91407,8.77734 2.875,2.09375 -1.95704,6.19141 -7.54296,7.54297 c -3.82813,-4.22657 -6.23047,-9.7461 -6.47657,-15.82813 z m -5.01563,-19.49219 c 4.44531,-4.10156 10.35156,-6.63672 16.85547,-6.68359 l -5.48438,17.39844 h -0.65625 z m 10.16016,-7.36328 c -4.28516,1.13672 -8.14063,3.30078 -11.29688,6.23047 l -6.22656,-6.23047 z m -18.96485,1.4375 6.23047,6.23047 c -2.92578,3.15625 -5.09375,7.01172 -6.23047,11.29688 z m 0,48.4375 v -17.16015 c 1.11719,4.19921 3.21875,7.98437 6.0586,11.10546 z m 1.80078,1.80078 6.05469,-6.05859 c 3.1211,2.83984 6.90625,4.94141 11.10547,6.05859 z m 9.53516,-5.30468 14.58984,-9.71094 c -0.16796,-0.004 -0.32812,-0.0391 -0.49609,-0.0391 -5.69141,0 -10.69531,2.99609 -13.52734,7.49218 l -0.6875,2.17188 c -0.11719,-0.0859 -0.21875,-0.1875 -0.33594,-0.27344 -0.008,0.0156 -0.0156,0.0273 -0.0234,0.043 l -1.33203,-1.01172 c 0.0156,-0.0312 0.0352,-0.0586 0.0508,-0.0898 -0.1914,-0.16407 -0.39844,-0.30469 -0.58203,-0.46875 l 2.25781,-2.25782 c 3.20313,-4.37109 8.34375,-7.23437 14.17969,-7.23437 1.45703,0 2.85938,0.21875 4.21484,0.55469 -2.54687,-2.46485 -4.16796,-5.88672 -4.16796,-9.70703 0,-4.21485 1.92187,-7.97657 4.9375,-10.46485 l -4.63672,-14.69922 c 0.0195,0 0.043,-0.004 0.0625,-0.004 6.48047,0 12.3789,2.48047 16.84375,6.52343 l -5.24219,5.24219 c -2.65234,0.31641 -5.05078,1.37891 -7.00781,3 l 0.5039,1.60156 c -2.375,2.1875 -3.86718,5.32032 -3.86718,8.80079 0,5.92968 4.33984,10.86718 10.01171,11.80468 l 0.54688,1.61328 c 0.0703,0.008 0.14062,0.0156 0.21094,0.0195 l 5.03515,5.03515 c -0.43359,0.39844 -0.88672,0.78125 -1.34375,1.15625 0.004,0.004 0.008,0.0117 0.008,0.0195 l -1.33985,1.02344 c -0.004,-0.0156 -0.0117,-0.0234 -0.0156,-0.0352 -0.15235,0.10547 -0.29297,0.22266 -0.44532,0.32422 l -0.72265,-2.57031 c -2.71485,-4.39062 -7.49219,-7.34766 -12.96875,-7.55859 l 13.6289,10.16797 c -3.97265,2.625 -8.72656,4.16406 -13.83593,4.16406 -5.40235,0 -10.39844,-1.72266 -14.50391,-4.63281 m 21.37891,5.30468 c 4.28515,-1.13672 8.13672,-3.30468 11.29297,-6.23047 l 6.23046,6.23047 z m 18.96484,-1.4375 -6.23047,-6.23047 c 2.92969,-3.16015 5.09375,-7.02343 6.23047,-11.3125 z m 0,-31.25781 c -1.11328,-4.20703 -3.21875,-7.99609 -6.05859,-11.125 l 6.05859,-6.05859 z m 0,0"
       style="fill:#000000;fill-opacity:1;fill-rule:nonzero;stroke:none" />
    <path
       id="path40"
       d="m 550.88672,187.39844 c -0.30469,-0.0352 -0.58985,-0.125 -0.89063,-0.17578 0.40235,0.33593 0.77344,0.70312 1.14453,1.07031 z m 0,0"
       style="fill:#00428f;fill-opacity:1;fill-rule:nonzero;stroke:none" />
  </g>
</svg>
